<?xml version="1.0" encoding="utf-8"?>
<!-- Generator: Adobe Illustrator 22.0.1, SVG Export Plug-In . SVG Version: 6.00 Build 0)  -->
<svg version="1.1" id="Camada_1" xmlns="http://www.w3.org/2000/svg" xmlns:xlink="http://www.w3.org/1999/xlink" x="0px" y="0px"
	 viewBox="0 0 257 527" style="enable-background:new 0 0 257 527;" xml:space="preserve">
<style type="text/css">
	.st0{fill:#E7CA05;}
	.st1{fill:#F9DD13;}
	.st2{fill:#0A5499;}
</style>
<g>
	<path class="st0" d="M12.4,210.1c0,38.1,27.9,78.6,56.7,98.6c1.9-8.9-5.3-28-6.9-31c-1.5-2.8-6.8-9.8-10.9-18.6
		c-16-15.5-26-37.3-26-61.4c0-47.3,38.4-85.6,85.6-85.6s90.8,38.4,88.7,85.6c-2.4,53.9-63.6,98.8-63.6,98.8l-9.7,34.5l-5.5,22.1
		l24.8-4.1c0,0,8.3-0.4,10.4-2.8c2.1-2.4,2.1-4.8,2.1-4.8s-0.5-13.4,0.7-17.2c1.1-3.4,7-9.6,7-9.6c42.7-15.6,73.1-55.7,73.1-104.1
		c0-62.6-50.7-113.2-113.2-113.2C63.1,96.9,12.4,147.6,12.4,210.1"/>
	<path class="st1" d="M21.6,210.1c0,38.1,18.8,70.9,47.6,90.9c1.9-8.9,3.8-20.3,2.2-23.4c-1.5-2.8-6.8-9.8-10.9-18.6
		c-16-15.5-26-37.3-26-61.4c0-47.3,38.4-85.6,85.6-85.6s90.8,38.4,88.7,85.6c-2.4,53.9-63.6,98.8-63.6,98.8l-9.7,34.5l-5.5,22.1
		l24.8-4.1c0,0,8.3-0.4,10.4-2.8c2.1-2.4,2.1-4.8,2.1-4.8s-0.5-13.4,0.7-17.2c1.1-3.4,7-9.6,7-9.6c42.7-15.6,73.1-55.7,73.1-104.1
		C248,147.7,197.3,97,134.8,97C72.3,96.9,21.6,147.6,21.6,210.1"/>
	<path class="st2" d="M167.9,347.9c0,0-3.5,2.1-4.8,2.8c-1.3,0.7-46.8,8.3-46.8,8.3s-4.6,1.3-7.4,4.1c-2.3,2.3-3,6.2-3,6.2v8.3
		l3.5-2.8c2.3-1.8,50.3-9.7,50.3-9.7s5.2-1.7,6.2-2.8c1.1-1.1,2.1-5.5,2.1-5.5L167.9,347.9L167.9,347.9z"/>
	<path class="st2" d="M167.9,364.5c0,0-3.5,2.1-4.8,2.8c-1.3,0.7-46.8,8.3-46.8,8.3s-4.6,1.3-7.4,4.1c-2.3,2.3-3,6.2-3,6.2v8.3
		l3.5-2.8c2.3-1.8,50.3-9.7,50.3-9.7s5.2-1.7,6.2-2.8c1.1-1.1,2.1-5.5,2.1-5.5L167.9,364.5L167.9,364.5z"/>
	<path class="st2" d="M167.9,381.6c0,0-3.5,2.1-4.8,2.8c-1.3,0.7-46.8,8.3-46.8,8.3s-4.6,1.3-7.4,4.1c-2.3,2.3-3,6.2-3,6.2
		s-0.9,3.5,2.1,3.9c3.7,0.7,51.6-8.1,51.6-8.1s5.2-1.7,6.2-2.8c1.1-1.1,2.1-5.5,2.1-5.5L167.9,381.6L167.9,381.6z"/>
	<path class="st2" d="M151.3,402.4l-25.5,4.8c0,0,3.3,10,14.5,8.3C152.3,413.6,151.3,402.4,151.3,402.4"/>
</g>
</svg>
