<?xml version="1.0" encoding="utf-8"?>
<!-- Generator: Adobe Illustrator 20.1.0, SVG Export Plug-In . SVG Version: 6.00 Build 0)  -->
<svg version="1.1" id="Layer_1" xmlns="http://www.w3.org/2000/svg" xmlns:xlink="http://www.w3.org/1999/xlink" x="0px" y="0px"
	 viewBox="0 0 682 360" style="enable-background:new 0 0 682 360;" xml:space="preserve">
<style type="text/css">
	.st0{fill-rule:evenodd;clip-rule:evenodd;fill:#E7CA05;}
	.st1{fill-rule:evenodd;clip-rule:evenodd;fill:#0A5499;}
	.st2{fill-rule:evenodd;clip-rule:evenodd;fill:#F9DD13;}
	.st3{fill-rule:evenodd;clip-rule:evenodd;fill:#0A5299;}
</style>
<g>
	<path class="st0" d="M421.4,130.9c0,39.7,29.1,81.9,59.1,102.7c2-9.3-5.5-29.2-7.2-32.3c-1.6-2.9-7.1-10.2-11.4-19.4
		c-16.7-16.2-27.1-38.9-27.1-64c0-49.3,40-89.2,89.2-89.2s94.6,40,92.4,89.2c-2.5,56.2-66.3,102.9-66.3,102.9l-10.1,35.9l-5.7,23
		l25.8-4.3c0,0,8.6-0.4,10.8-2.9c2.2-2.5,2.2-5,2.2-5s-0.5-14,0.7-17.9c1.1-3.5,7.3-10,7.3-10c44.5-16.3,76.2-58,76.2-108.5
		c0-65.2-52.8-118-118-118C474.2,12.9,421.4,65.7,421.4,130.9"/>
	<rect x="12.9" y="71.2" class="st1" width="10.3" height="98.2"/>
	<path class="st1" d="M65.6,158.9L65.6,158.9H37.5V81.9h27.9h0.2c3.2-0.2,7.1,0,11.6,0.9c8.5,1.5,15.4,4.7,20.6,9.5
		c7,6.5,10.5,15.9,10.5,28.2c0,12.2-3.5,21.6-10.5,28.1C90.5,155.5,79.7,158.9,65.6,158.9 M80.7,72.5c-4-0.7-9.2-1.1-15.4-1.1
		l-23.8,0H27.3l-0.1,98.1h7h31c4.5,0.3,9.4-0.1,14.8-1.1c10.2-2,18.6-6,25-12.1c9.2-8.6,13.9-20.5,13.9-35.8
		c0-15.3-4.6-27.2-13.9-35.8C98.5,78.5,90.4,74.5,80.7,72.5z"/>
	<path class="st1" d="M221.2,107.6L221.2,107.6c-2.8-10.7-8.6-19.5-17.5-26.5c-9-7.1-19.3-10.7-30.8-10.7
		c-13.8,0-25.6,4.8-35.4,14.5c-9.7,9.8-14.6,21.6-14.6,35.3c0,13.8,4.8,25.6,14.6,35.4c9.8,9.7,21.6,14.5,35.4,14.5
		c11.3,0,21.5-3.5,30.4-10.4c8.8-6.8,14.9-16.2,18.3-28.3h-11.1c-2.9,8.6-7.7,15.5-14.4,20.4c-6.9,5-14.6,7.7-23.1,7.9
		c-10.8-0.2-20.1-4.2-27.7-11.9c-7.7-7.7-11.6-16.9-11.9-27.7c0-4.1,0.8-8.4,2.5-12.6L221.2,107.6z M140.3,97.8L140.3,97.8
		c0.9-1.7,2.8-3.9,5.7-6.7c7.4-7,16.4-10.5,26.8-10.5c8.4,0,15.9,2.4,22.6,7.2c4.8,3.5,8.1,6.8,9.8,10H140.3z M190.9,38.1h-11.8
		l-17.9,30.4h11.3L190.9,38.1z"/>
	<rect x="228.3" y="71.2" class="st1" width="10.3" height="98.2"/>
	<path class="st1" d="M264.6,148.6L264.6,148.6c-7.9-7.8-11.8-17.4-11.8-28.5c0-11.1,3.9-20.6,11.8-28.5
		c7.8-7.9,17.4-11.8,28.5-11.8c11.1,0,20.6,3.9,28.5,11.8c7.8,7.9,11.8,17.3,11.8,28.5c0,11.1-3.9,20.6-11.8,28.5
		c-7.9,7.8-17.4,11.8-28.5,11.8C282,160.4,272.5,156.5,264.6,148.6 M333.7,169.3h9.9v-49.2c0-13.9-4.9-25.8-14.8-35.7
		c-9.9-9.8-21.8-14.8-35.7-14.8c-13.9,0-25.8,4.9-35.7,14.8c-9.8,9.9-14.8,21.8-14.8,35.7c0,13.9,4.9,25.8,14.8,35.7
		c9.9,9.9,21.8,14.8,35.7,14.8c13.9,0,25.8-4.9,35.7-14.8c3.2-3.2,4.8-4.9,4.9-5V169.3z"/>
	<path class="st1" d="M383.7,100.2c-2.8,0-5.2-1-7.3-3c-2-2-3-4.4-3-7.2c0-2.9,1-5.3,3-7.3c2-2,4.4-3,7.3-3c2.9,0,5.3,1,7.4,3
		c1.6,2,2.5,3.9,2.8,5.7l12.3,0.1c-4.5-12.6-12-18.9-22.5-18.9c-5.6,0-10.5,2-14.4,6c-4.1,4-6.1,8.9-6.1,14.5c0,5.6,2,10.4,6.1,14.4
		c0.2,0.2,0.5,0.5,1,1c3.8,3.3,8.3,4.9,13.4,4.9c7.1,0,13.2,2.5,18.2,7.5c5,4.9,7.5,10.8,7.5,17.9c0,6.9-2.5,12.9-7.5,17.8
		c-5,5-11.1,7.5-18.2,7.5c-7,0-13-2.4-17.9-7.3c-5-4.8-7.6-11.2-7.8-19.1h-10.1c0.2,10.8,3.7,19.5,10.7,26.3
		c6.9,6.8,15.3,10.2,25.1,10.2c9.9,0,18.3-3.5,25.3-10.4c7-6.8,10.5-15.2,10.5-25c0-7.4-2.2-14.1-6.5-20.2
		c-4.2-6-9.7-10.3-16.6-12.9C392.4,101,388.1,100.2,383.7,100.2"/>
	<path class="st1" d="M502.8,106.5c2.6-2.6,3.9-6.7,3.9-12.4c0-5.4-1.9-10-5.7-13.8c-3.9-3.8-8.5-5.7-13.9-5.7
		c-5.2,0-9.6,1.8-13.3,5.3c-3.7,3.4-5.8,7.7-6.2,12.8c0,0.7,0,1.1,0,1.5c0,1.6,0.3,3.7,1,6.2h11.1c-0.9-1.8-1.4-2.8-1.5-3.2
		c-1.5-5.7,0.4-9.6,5.9-11.8c0.1,0,0.1-0.1,0.2-0.1c0.3-0.1,0.5-0.1,0.7-0.2c0.4-0.1,0.7-0.1,0.9-0.1c0.5-0.1,0.9-0.1,1.2-0.1
		c2.6,0,4.9,1,6.7,2.8c1.8,1.8,2.8,4,2.8,6.6c0,1.9-1.2,4.3-3.5,7.3l-6,6.4l6.2,4.2c6,3.1,10.4,7,13.4,11.6
		c2.9,4.1,4.4,8.6,4.4,13.4c0,6.5-2.3,12-7,16.6c-4.7,4.6-10.3,6.9-16.9,6.9c-5.8,0-10.9-1.8-15.3-5.5c-4.4-3.6-7.2-8.6-8.4-14.9
		h-10.2c1.4,9.3,5.3,16.8,11.6,22.2c6.4,5.5,13.8,8.3,22.3,8.3c9.4,0,17.4-3.2,24.1-9.8c6.6-6.6,10-14.5,10-23.8
		c0-9.3-3.3-17.2-10-23.8C507.9,110.1,505.1,107.9,502.8,106.5"/>
	<path class="st1" d="M561.1,159.5L561.1,159.5h-26.4V86.9H561h0.2c3.1-0.3,6.7,0,11,0.8c8.1,1.4,14.5,4.4,19.4,8.9
		c6.6,6.2,9.8,15,9.8,26.5c0,11.5-3.3,20.3-9.8,26.5C584.5,156.2,574.4,159.5,561.1,159.5 M575.3,78.1c-3.8-0.7-8.6-1.1-14.5-1.1
		L538.4,77h-13.3l-0.1,92.3h6.6h29.2c4.2,0.2,8.9-0.1,13.9-1.1c9.6-1.9,17.5-5.6,23.6-11.3c8.7-8.1,13-19.3,13-33.7
		c0-14.4-4.4-25.7-13-33.7C592,83.7,584.4,80,575.3,78.1z"/>
	<path class="st2" d="M431,130.9c0,39.7,19.6,73.9,49.6,94.7c2-9.3,4-21.2,2.3-24.4c-1.6-2.9-7.1-10.2-11.4-19.4
		c-16.7-16.2-27.1-38.9-27.1-64c0-49.3,40-89.2,89.2-89.2s94.6,40,92.4,89.2c-2.5,56.2-66.3,102.9-66.3,102.9l-10.1,35.9l-5.7,23
		l25.8-4.3c0,0,8.6-0.4,10.8-2.9c2.2-2.5,2.2-5,2.2-5s-0.5-14,0.7-17.9c1.1-3.5,7.3-10,7.3-10c44.5-16.3,76.2-58,76.2-108.5
		c0-65.2-52.8-118-118-118C483.8,12.9,431,65.7,431,130.9"/>
	<path class="st1" d="M583.4,274.4c0,0-3.6,2.2-5,2.9c-1.4,0.7-48.8,8.6-48.8,8.6s-4.8,1.4-7.7,4.3c-2.4,2.4-3.1,6.5-3.1,6.5v8.6
		l3.6-2.9c2.4-1.9,52.4-10.1,52.4-10.1s5.4-1.8,6.5-2.9c1.1-1.1,2.2-5.7,2.2-5.7V274.4z"/>
	<path class="st1" d="M583.4,291.7c0,0-3.6,2.2-5,2.9c-1.4,0.7-48.8,8.6-48.8,8.6s-4.8,1.4-7.7,4.3c-2.4,2.4-3.1,6.5-3.1,6.5v8.6
		l3.6-2.9c2.4-1.9,52.4-10.1,52.4-10.1s5.4-1.8,6.5-2.9c1.1-1.1,2.2-5.7,2.2-5.7V291.7z"/>
	<path class="st1" d="M583.4,309.6c0,0-3.6,2.2-5,2.9c-1.4,0.7-48.8,8.6-48.8,8.6s-4.8,1.4-7.7,4.3c-2.4,2.4-3.1,6.5-3.1,6.5
		s-0.9,3.6,2.2,4.1c3.9,0.7,53.8-8.4,53.8-8.4s5.4-1.8,6.5-2.9c1.1-1.1,2.2-5.7,2.2-5.7V309.6z"/>
	<path class="st1" d="M566.1,331.2l-26.6,5c0,0,3.4,10.4,15.1,8.6C567.2,342.9,566.1,331.2,566.1,331.2"/>
	<polygon class="st3" points="32.9,196.3 32.9,194.9 13.6,194.9 13.6,196.3 22.6,196.3 22.6,220.4 24,220.4 24,196.3 	"/>
	<polygon class="st3" points="42,220.5 57.9,220.5 57.9,219.1 43.4,219.1 43.4,207.6 55,207.6 55,206.2 43.4,206.2 43.4,196.3 
		57.9,196.3 57.9,194.9 42,194.9 	"/>
	<path class="st3" d="M87.4,213c-1.8,3.9-5.8,6.2-10.1,6.2c-6.2,0-11.2-4.3-11.2-11.5c0-7.1,4.7-11.4,11.3-11.4c6.4,0,8.9,4,9.7,5.6
		l1.3-0.4c-1.5-3.4-5.3-6.6-11-6.6c-7.1,0-12.6,5-12.6,12.8c0,7.8,5.5,12.9,12.6,12.9c5.2,0,9.4-2.7,11.4-7.2L87.4,213z"/>
	<path class="st3" d="M114.5,220.4h1.4V195h-1.4v17.3c0,3.8,0.1,6.8,0.1,6.8h0L98.3,195h-1.4v25.5h1.4v-17.2c0-4.1-0.1-7-0.1-7h0
		L114.5,220.4z"/>
	<path class="st3" d="M124.4,207.7L124.4,207.7c0,7.7,5.6,12.8,12.7,12.8c7,0,12.7-5.1,12.7-12.8c0-7.7-5.7-12.8-12.7-12.8
		C130,194.9,124.4,200,124.4,207.7 M125.8,207.7c0-7.1,5-11.4,11.3-11.4c6.2,0,11.3,4.3,11.3,11.4c0,7.1-5,11.4-11.3,11.4
		C130.7,219.1,125.8,214.8,125.8,207.7z"/>
	<polygon class="st3" points="158.2,220.5 173.4,220.5 173.4,219.1 159.6,219.1 159.6,195 158.2,195 	"/>
	<path class="st3" d="M179.2,207.7L179.2,207.7c0,7.7,5.6,12.8,12.7,12.8c7,0,12.7-5.1,12.7-12.8c0-7.7-5.7-12.8-12.7-12.8
		C184.9,194.9,179.2,200,179.2,207.7 M180.6,207.7c0-7.1,5-11.4,11.3-11.4c6.2,0,11.3,4.3,11.3,11.4c0,7.1-5,11.4-11.3,11.4
		C185.6,219.1,180.6,214.8,180.6,207.7z"/>
	<path class="st3" d="M235.2,220.4v-12.6H226v1.4h7.7v4.8c-1.1,2-4.8,5.2-9.9,5.2c-6.1,0-11-4.3-11-11.6c0-7,4.7-11.3,11.1-11.3
		c6.3,0,8.8,4.1,9.5,5.6l1.4-0.4c-1.6-3.4-5.3-6.6-10.9-6.6c-7,0-12.5,4.9-12.5,12.7c0,7.8,5.5,12.9,12.3,12.9c5.7,0,8.9-3.5,10-4.9
		h0c0,0.6,0,1.2,0,4.8H235.2z"/>
	<rect x="245.3" y="195" class="st3" width="1.4" height="25.3"/>
	<path class="st3" d="M272.2,212.4L272.2,212.4l3.5,8h1.5l-11-25.5h-1.4l-11,25.5h1.5l3.5-8H272.2z M271.7,211h-12.5l3.3-7.6
		c1-2.5,3-7.1,3-7.2h0c0,0,1.9,4.7,3,7.2L271.7,211z"/>
</g>
</svg>
