<svg id="Layer_1" data-name="Layer 1" xmlns="http://www.w3.org/2000/svg" viewBox="0 0 654 332.01"><defs><style>.cls-1{fill:#e7ca05;}.cls-2{fill:#0a5499;}.cls-3{fill:#f9dd13;}.cls-4{fill:#0a5299;}</style></defs><title>logo-menu</title><path class="cls-1" d="M421.4,130.9c0,39.7,29.1,81.9,59.1,102.7,2-9.3-5.5-29.2-7.2-32.3-1.6-2.9-7.1-10.2-11.4-19.4A89.18,89.18,0,0,1,524,28.7c49.2,0,94.6,40,92.4,89.2-2.5,56.2-66.3,102.9-66.3,102.9L540,256.7l-5.7,23,25.8-4.3s8.6-.4,10.8-2.9a8.28,8.28,0,0,0,2.2-5s-.5-14,.7-17.9c1.1-3.5,7.3-10,7.3-10,44.5-16.3,76.2-58,76.2-108.5a118,118,0,0,0-118-118c-65.1-.2-117.9,52.6-117.9,117.8" transform="translate(-12.9 -13)"/><rect class="cls-2" y="58.2" width="10.3" height="98.2"/><path class="cls-2" d="M65.6,158.9H37.5v-77H65.6a45.13,45.13,0,0,1,11.6.9c8.5,1.5,15.4,4.7,20.6,9.5q10.5,9.75,10.5,28.2c0,12.2-3.5,21.6-10.5,28.1-7.3,6.9-18.1,10.3-32.2,10.3M80.7,72.5a92.09,92.09,0,0,0-15.4-1.1h-38l-.1,98.1h38A59.78,59.78,0,0,0,80,168.4c10.2-2,18.6-6,25-12.1,9.2-8.6,13.9-20.5,13.9-35.8S114.3,93.3,105,84.7C98.5,78.5,90.4,74.5,80.7,72.5Z" transform="translate(-12.9 -13)"/><path class="cls-2" d="M221.2,107.6h0a50.18,50.18,0,0,0-48.3-37.2,49.68,49.68,0,0,0-50,49.8,49.68,49.68,0,0,0,50,49.9,48.47,48.47,0,0,0,30.4-10.4c8.8-6.8,14.9-16.2,18.3-28.3H210.5c-2.9,8.6-7.7,15.5-14.4,20.4a40.22,40.22,0,0,1-23.1,7.9,38.68,38.68,0,0,1-27.7-11.9,39.27,39.27,0,0,1-11.9-27.7,33.66,33.66,0,0,1,2.5-12.6Zm-80.9-9.8h0a30.93,30.93,0,0,1,5.7-6.7,39.28,39.28,0,0,1,49.4-3.3c4.8,3.5,8.1,6.8,9.8,10Zm50.6-59.7H179.1L161.2,68.5h11.3Z" transform="translate(-12.9 -13)"/><rect class="cls-2" x="215.4" y="58.2" width="10.3" height="98.2"/><path class="cls-2" d="M264.6,148.6h0a38.65,38.65,0,0,1-11.8-28.5,40.3,40.3,0,1,1,80.6,0,38.81,38.81,0,0,1-11.8,28.5,39.2,39.2,0,0,1-28.5,11.8,38.81,38.81,0,0,1-28.5-11.8m69.1,20.7h9.9V120.1a50.49,50.49,0,0,0-86.2-35.7,49,49,0,0,0-14.8,35.7,50.49,50.49,0,0,0,86.2,35.7c3.2-3.2,4.8-4.9,4.9-5Z" transform="translate(-12.9 -13)"/><path class="cls-2" d="M383.7,100.2a10.21,10.21,0,0,1-7.3-3,10.25,10.25,0,0,1,7.3-17.5,10.27,10.27,0,0,1,7.4,3,12.57,12.57,0,0,1,2.8,5.7l12.3.1q-6.75-18.9-22.5-18.9a20.66,20.66,0,0,0-20.5,20.5,19.36,19.36,0,0,0,6.1,14.4l1,1a19.8,19.8,0,0,0,13.4,4.9,24.83,24.83,0,0,1,18.2,7.5,25,25,0,0,1,0,35.7,24.83,24.83,0,0,1-18.2,7.5,24.37,24.37,0,0,1-17.9-7.3c-5-4.8-7.6-11.2-7.8-19.1H347.9c.2,10.8,3.7,19.5,10.7,26.3a36,36,0,0,0,50.4-.2,33.61,33.61,0,0,0,10.5-25,34.26,34.26,0,0,0-6.5-20.2,34.75,34.75,0,0,0-16.6-12.9,32.33,32.33,0,0,0-12.7-2.5" transform="translate(-12.9 -13)"/><path class="cls-2" d="M502.8,106.5c2.6-2.6,3.9-6.7,3.9-12.4A18.8,18.8,0,0,0,501,80.3a19.18,19.18,0,0,0-13.9-5.7,18.66,18.66,0,0,0-13.3,5.3,18.86,18.86,0,0,0-6.2,12.8v1.5a23.76,23.76,0,0,0,1,6.2h11.1a28.3,28.3,0,0,1-1.5-3.2c-1.5-5.7.4-9.6,5.9-11.8.1,0,.1-.1.2-.1a6.37,6.37,0,0,0,.7-.2,3.44,3.44,0,0,1,.9-.1,5.74,5.74,0,0,1,1.2-.1,9.29,9.29,0,0,1,6.7,2.8,9.07,9.07,0,0,1,2.8,6.6c0,1.9-1.2,4.3-3.5,7.3l-6,6.4,6.2,4.2a34.29,34.29,0,0,1,13.4,11.6,22.85,22.85,0,0,1,4.4,13.4,22.29,22.29,0,0,1-7,16.6,23.25,23.25,0,0,1-16.9,6.9,23,23,0,0,1-15.3-5.5c-4.4-3.6-7.2-8.6-8.4-14.9H453.3c1.4,9.3,5.3,16.8,11.6,22.2a34.33,34.33,0,0,0,46.4-1.5,32.49,32.49,0,0,0,10-23.8,32.11,32.11,0,0,0-10-23.8,50.24,50.24,0,0,0-8.5-6.9" transform="translate(-12.9 -13)"/><path class="cls-2" d="M561.1,159.5H534.7V86.9h26.5a40,40,0,0,1,11,.8c8.1,1.4,14.5,4.4,19.4,8.9,6.6,6.2,9.8,15,9.8,26.5s-3.3,20.3-9.8,26.5c-7.1,6.6-17.2,9.9-30.5,9.9m14.2-81.4A81.52,81.52,0,0,0,560.8,77H525.1l-.1,92.3h35.8a57.27,57.27,0,0,0,13.9-1.1c9.6-1.9,17.5-5.6,23.6-11.3,8.7-8.1,13-19.3,13-33.7s-4.4-25.7-13-33.7A47.23,47.23,0,0,0,575.3,78.1Z" transform="translate(-12.9 -13)"/><path class="cls-3" d="M431,130.9a114.37,114.37,0,0,0,49.6,94.7c2-9.3,4-21.2,2.3-24.4-1.6-2.9-7.1-10.2-11.4-19.4A89.18,89.18,0,0,1,533.6,28.6c49.2,0,94.6,40,92.4,89.2-2.5,56.2-66.3,102.9-66.3,102.9l-10.1,35.9-5.7,23,25.8-4.3s8.6-.4,10.8-2.9a8.28,8.28,0,0,0,2.2-5s-.5-14,.7-17.9c1.1-3.5,7.3-10,7.3-10,44.5-16.3,76.2-58,76.2-108.5a118,118,0,0,0-235.9-.1" transform="translate(-12.9 -13)"/><path class="cls-2" d="M583.4,274.4s-3.6,2.2-5,2.9-48.8,8.6-48.8,8.6-4.8,1.4-7.7,4.3c-2.4,2.4-3.1,6.5-3.1,6.5v8.6l3.6-2.9c2.4-1.9,52.4-10.1,52.4-10.1s5.4-1.8,6.5-2.9,2.2-5.7,2.2-5.7v-9.3Z" transform="translate(-12.9 -13)"/><path class="cls-2" d="M583.4,291.7s-3.6,2.2-5,2.9-48.8,8.6-48.8,8.6-4.8,1.4-7.7,4.3c-2.4,2.4-3.1,6.5-3.1,6.5v8.6l3.6-2.9c2.4-1.9,52.4-10.1,52.4-10.1s5.4-1.8,6.5-2.9,2.2-5.7,2.2-5.7v-9.3Z" transform="translate(-12.9 -13)"/><path class="cls-2" d="M583.4,309.6s-3.6,2.2-5,2.9-48.8,8.6-48.8,8.6-4.8,1.4-7.7,4.3c-2.4,2.4-3.1,6.5-3.1,6.5s-.9,3.6,2.2,4.1c3.9.7,53.8-8.4,53.8-8.4s5.4-1.8,6.5-2.9,2.2-5.7,2.2-5.7v-9.4Z" transform="translate(-12.9 -13)"/><path class="cls-2" d="M566.1,331.2l-26.6,5s3.4,10.4,15.1,8.6c12.6-1.9,11.5-13.6,11.5-13.6" transform="translate(-12.9 -13)"/><polygon class="cls-4" points="27.45 199.84 27.45 197.9 0.7 197.9 0.7 199.84 13.18 199.84 13.18 233.25 15.12 233.25 15.12 199.84 27.45 199.84"/><polygon class="cls-4" points="40.07 233.39 62.11 233.39 62.11 231.45 42.01 231.45 42.01 215.5 58.09 215.5 58.09 213.56 42.01 213.56 42.01 199.84 62.11 199.84 62.11 197.9 40.07 197.9 40.07 233.39"/><path class="cls-4" d="M115.9,236a15.2,15.2,0,0,1-14,8.59c-8.59,0-15.52-6-15.52-15.94s6.51-15.8,15.66-15.8c8.87,0,12.34,5.55,13.45,7.76l1.8-.55c-2.08-4.71-7.35-9.15-15.25-9.15-9.84,0-17.47,6.93-17.47,17.74S92.2,246.53,102,246.53a16.66,16.66,0,0,0,15.8-10Z" transform="translate(-12.9 -13)"/><path class="cls-4" d="M153.47,246.25h1.94V211h-1.94v24c0,5.27.14,9.43.14,9.43h0L131,211h-1.94v35.35H131V222.54c0-5.68-.14-9.7-.14-9.7h0Z" transform="translate(-12.9 -13)"/><path class="cls-4" d="M167.19,228.64h0c0,10.68,7.76,17.75,17.6,17.75s17.61-7.07,17.61-17.75-7.9-17.74-17.61-17.74-17.6,7.07-17.6,17.74m1.94,0c0-9.84,6.93-15.8,15.66-15.8s15.67,6,15.67,15.8-6.93,15.81-15.67,15.81S169.13,238.49,169.13,228.64Z" transform="translate(-12.9 -13)"/><polygon class="cls-4" points="201.14 233.39 222.21 233.39 222.21 231.45 203.08 231.45 203.08 198.04 201.14 198.04 201.14 233.39"/><path class="cls-4" d="M243.15,228.64h0c0,10.68,7.77,17.75,17.61,17.75s17.6-7.07,17.6-17.75-7.9-17.74-17.6-17.74-17.61,7.07-17.61,17.74m1.94,0c0-9.84,6.93-15.8,15.67-15.8s15.66,6,15.66,15.8-6.93,15.81-15.66,15.81S245.09,238.49,245.09,228.64Z" transform="translate(-12.9 -13)"/><path class="cls-4" d="M320.78,246.25V228.78H308v1.94H318.7v6.66c-1.52,2.77-6.65,7.2-13.72,7.2-8.46,0-15.25-6-15.25-16.08,0-9.7,6.51-15.66,15.39-15.66s12.19,5.68,13.16,7.76l2-.55a16.25,16.25,0,0,0-15.11-9.15c-9.71,0-17.33,6.79-17.33,17.6s7.62,17.89,17,17.89a17.43,17.43,0,0,0,13.86-6.8h0v6.66Z" transform="translate(-12.9 -13)"/><rect class="cls-4" x="321.88" y="198.04" width="1.94" height="35.07"/><path class="cls-4" d="M372.07,235.16h0l4.85,11.09H379L363.75,210.9h-1.94l-15.25,35.35h2.08l4.85-11.09Zm-.69-1.94H354.05l4.57-10.54c1.39-3.46,4.16-9.84,4.16-10h0s2.64,6.52,4.16,10Z" transform="translate(-12.9 -13)"/></svg>